Coordinates
version=1
nRows=26
nColumns=27
inDegrees=yes

Units are S.I. units (second, meters, Newtons, ...)
If the header above contains a line with 'inDegrees', this indicates whether rotational values are in degrees (yes) or radians (no).

endheader
time	pelvis_rotation	pelvis_tilt	pelvis_list	pelvis_tx	pelvis_ty	pelvis_tz	hip_flexion_r	hip_adduction_r	hip_rotation_r	knee_angle_r	knee_rotation_r	knee_adduction_r	knee_angle_r_beta	ankle_angle_r	subtalar_angle_r	mtp_angle_r	hip_flexion_l	hip_adduction_l	hip_rotation_l	knee_angle_l	knee_rotation_l	knee_adduction_l	knee_angle_l_beta	ankle_angle_l	subtalar_angle_l	mtp_angle_l
      3.94500000	      3.99019089	    -34.69899150	      4.44203057	      0.01712502	      0.63010089	     -1.15603097	    101.57498251	    -42.05807913	      3.95486448	     81.92425759	      0.00000000	      0.00000000	      1.42984803	      6.84070030	      0.00000000	      0.00000000	     97.05691134	    -28.41291479	      5.99452153	     74.08315800	      0.00000000	      0.00000000	      1.29299503	      3.86219541	      0.00000000	      0.00000000
      3.95000000	      4.00240740	    -34.70244235	      4.41077202	      0.01729192	      0.62851365	     -1.15580940	    101.81403070	    -42.10689413	      4.08781121	     82.21949840	      0.00000000	      0.00000000	      1.43500096	      6.96738175	      0.00000000	      0.00000000	     97.33502736	    -28.46700245	      6.15945619	     74.36584460	      0.00000000	      0.00000000	      1.29792884	      3.88980057	      0.00000000	      0.00000000
      3.95500000	      4.07955247	    -34.65980091	      4.52437759	      0.01751716	      0.62694509	     -1.15569557	    102.15116673	    -42.21296791	      4.39716040	     82.52766226	      0.00000000	      0.00000000	      1.44037943	      7.04610807	      0.00000000	      0.00000000	     97.46411479	    -28.45893915	      6.17840139	     74.62350274	      0.00000000	      0.00000000	      1.30242582	      4.00341475	      0.00000000	      0.00000000
      3.96000000	      4.07503503	    -34.64238731	      4.51722494	      0.01772048	      0.62534715	     -1.15550402	    102.40659237	    -42.24386936	      4.58120474	     82.82706113	      0.00000000	      0.00000000	      1.44560493	      7.15860114	      0.00000000	      0.00000000	     97.69608436	    -28.53116010	      6.30050185	     74.90893126	      0.00000000	      0.00000000	      1.30740749	      4.06090459	      0.00000000	      0.00000000
      3.96500000	      3.99916259	    -34.61094831	      4.43195362	      0.01793287	      0.62384927	     -1.15526951	    102.54827982	    -42.21084461	      4.66641167	     83.08650995	      0.00000000	      0.00000000	      1.45013316	      7.28701607	      0.00000000	      0.00000000	     97.92580855	    -28.65260947	      6.48274264	     75.17992014	      0.00000000	      0.00000000	      1.31213714	      4.10461811	      0.00000000	      0.00000000
      3.97000000	      4.04514583	    -34.60189904	      4.54048206	      0.01817653	      0.62212108	     -1.15514376	    102.96968059	    -42.29489995	      5.00427355	     83.43771133	      0.00000000	      0.00000000	      1.45626278	      7.37450322	      0.00000000	      0.00000000	     98.11611246	    -28.69693035	      6.49396867	     75.47828494	      0.00000000	      0.00000000	      1.31734459	      4.23821986	      0.00000000	      0.00000000
      3.97500000	      4.06708925	    -34.56670853	      4.51339049	      0.01836844	      0.62062515	     -1.15498708	    103.14619229	    -42.34256124	      5.14330284	     83.70574832	      0.00000000	      0.00000000	      1.46094091	      7.49520391	      0.00000000	      0.00000000	     98.33189420	    -28.70896958	      6.66729686	     75.74252890	      0.00000000	      0.00000000	      1.32195651	      4.28048238	      0.00000000	      0.00000000
      3.98000000	      4.04851859	    -34.54799114	      4.51531900	      0.01858233	      0.61903799	     -1.15482083	    103.40936696	    -42.35872255	      5.34160567	     83.99709855	      0.00000000	      0.00000000	      1.46602593	      7.60544067	      0.00000000	      0.00000000	     98.54250568	    -28.78012779	      6.78527126	     76.02154489	      0.00000000	      0.00000000	      1.32682626	      4.35747030	      0.00000000	      0.00000000
      3.98500000	      4.00270182	    -34.51407352	      4.50411628	      0.01878907	      0.61743726	     -1.15465732	    103.65246167	    -42.33828943	      5.54767395	     84.29014980	      0.00000000	      0.00000000	      1.47114064	      7.68350340	      0.00000000	      0.00000000	     98.74593685	    -28.87148826	      6.90700350	     76.31333695	      0.00000000	      0.00000000	      1.33191899	      4.43790299	      0.00000000	      0.00000000
      3.99000000	      4.01490977	    -34.49707142	      4.51634695	      0.01902598	      0.61584743	     -1.15452363	    103.92880723	    -42.40464525	      5.74001124	     84.58286324	      0.00000000	      0.00000000	      1.47624945	      7.80714544	      0.00000000	      0.00000000	     98.95662380	    -28.91016289	      7.02943826	     76.58495548	      0.00000000	      0.00000000	      1.33665963	      4.53067955	      0.00000000	      0.00000000
      3.99500000	      3.88812954	    -34.48654088	      4.46416202	      0.01922267	      0.61425126	     -1.15431473	    104.16930363	    -42.30194688	      5.92332121	     84.86816257	      0.00000000	      0.00000000	      1.48122887	      7.93103111	      0.00000000	      0.00000000	     99.18292401	    -29.09219188	      7.14998066	     76.87014105	      0.00000000	      0.00000000	      1.34163706	      4.58194208	      0.00000000	      0.00000000
      4.00000000	      3.83031523	    -34.46514334	      4.44029483	      0.01943601	      0.61263421	     -1.15414746	    104.41548653	    -42.28977769	      6.09938354	     85.16118310	      0.00000000	      0.00000000	      1.48634304	      8.08020989	      0.00000000	      0.00000000	     99.40657626	    -29.19690730	      7.28893285	     77.15721491	      0.00000000	      0.00000000	      1.34664744	      4.64399829	      0.00000000	      0.00000000
      4.00500000	      3.91685702	    -34.40271042	      4.49184074	      0.01968038	      0.61103727	     -1.15408129	    104.66751228	    -42.43662166	      6.30450922	     85.45358502	      0.00000000	      0.00000000	      1.49144642	      8.15167220	      0.00000000	      0.00000000	     99.55810438	    -29.13912107	      7.41470777	     77.42501788	      0.00000000	      0.00000000	      1.35132149	      4.79804076	      0.00000000	      0.00000000
      4.01000000	      3.83344507	    -34.39844844	      4.44586673	      0.01986125	      0.60948233	     -1.15391743	    104.90277052	    -42.39101313	      6.46737912	     85.72478209	      0.00000000	      0.00000000	      1.49617970	      8.24973211	      0.00000000	      0.00000000	     99.78950109	    -29.25776026	      7.56405129	     77.69204085	      0.00000000	      0.00000000	      1.35598192	      4.84997114	      0.00000000	      0.00000000
      4.01500000	      3.78249725	    -34.37517657	      4.40775897	      0.02007415	      0.60781946	     -1.15376144	    105.14654756	    -42.40493498	      6.61555576	     86.01991077	      0.00000000	      0.00000000	      1.50133067	      8.36169776	      0.00000000	      0.00000000	    100.03373934	    -29.35366443	      7.72686624	     77.99678269	      0.00000000	      0.00000000	      1.36130066	      4.93498567	      0.00000000	      0.00000000
      4.02000000	      3.78238001	    -34.35885061	      4.43654288	      0.02027124	      0.60619165	     -1.15363281	    105.45383559	    -42.44908600	      6.84222429	     86.31699627	      0.00000000	      0.00000000	      1.50651579	      8.46059753	      0.00000000	      0.00000000	    100.23742246	    -29.39662206	      7.83907200	     78.27093579	      0.00000000	      0.00000000	      1.36608554	      5.02819454	      0.00000000	      0.00000000
      4.02500000	      3.76210516	    -34.33525594	      4.43022174	      0.02047335	      0.60458590	     -1.15349831	    105.71311326	    -42.48529022	      7.02362932	     86.60296044	      0.00000000	      0.00000000	      1.51150680	      8.56124086	      0.00000000	      0.00000000	    100.45296171	    -29.45473931	      7.98011968	     78.54833158	      0.00000000	      0.00000000	      1.37092701	      5.11631551	      0.00000000	      0.00000000
      4.03000000	      3.69037690	    -34.32351433	      4.37975187	      0.02066369	      0.60298239	     -1.15332255	    105.94265029	    -42.47365322	      7.15522089	     86.87806737	      0.00000000	      0.00000000	      1.51630832	      8.66208965	      0.00000000	      0.00000000	    100.69562538	    -29.56232176	      8.15281835	     78.82948819	      0.00000000	      0.00000000	      1.37583412	      5.20451700	      0.00000000	      0.00000000
      4.03500000	      3.68307640	    -34.31885196	      4.38325751	      0.02085235	      0.60139479	     -1.15317429	    106.23076154	    -42.51802398	      7.34200268	     87.16571110	      0.00000000	      0.00000000	      1.52132865	      8.74808105	      0.00000000	      0.00000000	    100.92290001	    -29.61285584	      8.28644177	     79.09980036	      0.00000000	      0.00000000	      1.38055195	      5.27974330	      0.00000000	      0.00000000
      4.04000000	      3.58594365	    -34.32009990	      4.33022434	      0.02102252	      0.59983281	     -1.15298006	    106.47186028	    -42.46916210	      7.48621239	     87.43690952	      0.00000000	      0.00000000	      1.52606196	      8.83801206	      0.00000000	      0.00000000	    101.16632317	    -29.74964843	      8.44044092	     79.36890453	      0.00000000	      0.00000000	      1.38524871	      5.35082827	      0.00000000	      0.00000000
      4.04500000	      3.42938413	    -34.35067496	      4.19717532	      0.02116336	      0.59827349	     -1.15271116	    106.67089838	    -42.36941278	      7.53914806	     87.70063048	      0.00000000	      0.00000000	      1.53066476	      8.96334300	      0.00000000	      0.00000000	    101.49657824	    -29.94608464	      8.66604259	     79.64843808	      0.00000000	      0.00000000	      1.39012749	      5.35755595	      0.00000000	      0.00000000
      4.05000000	      3.46357923	    -34.33365592	      4.25761530	      0.02134720	      0.59674127	     -1.15256486	    106.98136203	    -42.44692093	      7.77090124	     87.97485174	      0.00000000	      0.00000000	      1.53545082	      9.04709110	      0.00000000	      0.00000000	    101.66660768	    -29.95867619	      8.74965153	     79.89654118	      0.00000000	      0.00000000	      1.39445770	      5.46904470	      0.00000000	      0.00000000
      4.05500000	      3.47107631	    -34.33587581	      4.24808882	      0.02151400	      0.59523343	     -1.15237973	    107.24300464	    -42.51211080	      7.91642626	     88.24472837	      0.00000000	      0.00000000	      1.54016106	      9.14211046	      0.00000000	      0.00000000	    101.90100207	    -29.98544176	      8.90899229	     80.14156704	      0.00000000	      0.00000000	      1.39873421	      5.55770854	      0.00000000	      0.00000000
      4.06000000	      3.45248735	    -34.36739265	      4.23836418	      0.02165257	      0.59372061	     -1.15217985	    107.53366990	    -42.53367053	      8.08107209	     88.51673481	      0.00000000	      0.00000000	      1.54490847	      9.26283263	      0.00000000	      0.00000000	    102.16644659	    -30.03811598	      9.06475449	     80.39553075	      0.00000000	      0.00000000	      1.40316672	      5.60287608	      0.00000000	      0.00000000
      4.06500000	      3.40779993	    -34.39855460	      4.18649689	      0.02178936	      0.59223421	     -1.15192362	    107.79741385	    -42.55365356	      8.17928718	     88.77676974	      0.00000000	      0.00000000	      1.54944693	      9.30511681	      0.00000000	      0.00000000	    102.44631620	    -30.12642134	      9.24426291	     80.63402025	      0.00000000	      0.00000000	      1.40732914	      5.67342752	      0.00000000	      0.00000000
      4.07000000	      3.37989024	    -34.44035543	      4.17228219	      0.02187261	      0.59077349	     -1.15168600	    108.10145489	    -42.55706389	      8.33961779	     89.03815513	      0.00000000	      0.00000000	      1.55400897	      9.37961946	      0.00000000	      0.00000000	    102.71824682	    -30.20448420	      9.37785213	     80.86510538	      0.00000000	      0.00000000	      1.41136234	      5.70469639	      0.00000000	      0.00000000
